STARTFONT 2.1
FONT -Adobe-ITC Avant Garde Gothic-Demi-O-Normal--17-120-100-100-P-93-ISO8859-15
SIZE 12 100 100
FONTBOUNDINGBOX 22 20 -2 -3

STARTPROPERTIES 30
FOUNDRY "Adobe"
FAMILY_NAME "ITC Avant Garde Gothic"
WEIGHT_NAME "Demi"
SLANT "O"
SETWIDTH_NAME "Normal"
ADD_STYLE_NAME ""
PIXEL_SIZE 17
POINT_SIZE 120
RESOLUTION_X 100
RESOLUTION_Y 100
SPACING "P"
AVERAGE_WIDTH 93
CHARSET_REGISTRY "ISO8859"
CHARSET_ENCODING "15"
CAP_HEIGHT 13
X_HEIGHT 10
FACE_NAME "ITC Avant Garde Gothic Demi Oblique"
COPYRIGHT "Copyright (c) 1984, 1987 Adobe Systems Incorporated. All Rights Reserved. Copyright (c) 1988, 1991 Digital Equipment Corporation. All Rights Reserved."
NOTICE "ITC Avant Garde Gothic is a registered trademark of International Typeface Corporation."
_DEC_DEVICE_FONTNAMES "PS=AvantGarde-DemiOblique"
_DEC_PRODUCTINFO "DECwindows Fonts V2.2, 07-Nov-1991"
RELATIVE_SETWIDTH 50
RELATIVE_WEIGHT 60
CHARSET_COLLECTIONS "ASCII ISO8859-1 ADOBE-STANDARD"
FULL_NAME "ITC Avant Garde Gothic Demi Oblique"
WEIGHT 10
QUAD_WIDTH 11
DEFAULT_CHAR 32
FONT_DESCENT 3
FONT_ASCENT 15
ENDPROPERTIES

CHARS 191

STARTCHAR space
ENCODING 32
SWIDTH 280 0
DWIDTH 4 0
BBX 1 1 0 0
BITMAP
00
ENDCHAR

STARTCHAR exclam
ENCODING 33
SWIDTH 280 0
DWIDTH 5 0
BBX 5 13 1 0
BITMAP
18
18
18
30
30
30
30
60
60
60
00
C0
C0
ENDCHAR

STARTCHAR quotedbl
ENCODING 34
SWIDTH 360 0
DWIDTH 6 0
BBX 5 4 3 9
BITMAP
48
48
90
90
ENDCHAR

STARTCHAR numbersign
ENCODING 35
SWIDTH 600 0
DWIDTH 9 0
BBX 8 13 2 0
BITMAP
09
09
09
12
7F
7F
24
FE
FE
48
90
90
90
ENDCHAR

STARTCHAR dollar
ENCODING 36
SWIDTH 560 0
DWIDTH 9 0
BBX 8 15 1 -1
BITMAP
06
06
0F
1B
33
30
38
1C
0E
06
C6
CC
78
30
30
ENDCHAR

STARTCHAR percent
ENCODING 37
SWIDTH 860 0
DWIDTH 14 0
BBX 11 13 3 0
BITMAP
3820
7C60
CCC0
CD80
FB00
7600
0600
0DC0
1BE0
3660
2660
67C0
4380
ENDCHAR

STARTCHAR ampersand
ENCODING 38
SWIDTH 680 0
DWIDTH 11 0
BBX 12 13 1 0
BITMAP
0380
0FC0
0CC0
1980
1F80
0E30
3E30
7660
E3C0
C380
C780
7DC0
3880
ENDCHAR

STARTCHAR quoteright
ENCODING 39
SWIDTH 280 0
DWIDTH 5 0
BBX 2 4 4 9
BITMAP
C0
C0
40
80
ENDCHAR

STARTCHAR parenleft
ENCODING 40
SWIDTH 380 0
DWIDTH 6 0
BBX 7 15 2 -2
BITMAP
06
1E
18
30
60
60
C0
C0
C0
C0
C0
C0
C0
60
60
ENDCHAR

STARTCHAR parenright
ENCODING 41
SWIDTH 380 0
DWIDTH 6 0
BBX 7 15 -1 -2
BITMAP
0C
0C
06
06
06
06
06
06
06
0C
0C
18
30
F0
C0
ENDCHAR

STARTCHAR asterisk
ENCODING 42
SWIDTH 440 0
DWIDTH 7 0
BBX 6 5 3 8
BITMAP
28
38
FC
70
50
ENDCHAR

STARTCHAR plus
ENCODING 43
SWIDTH 600 0
DWIDTH 10 0
BBX 8 8 2 1
BITMAP
0C
0C
18
FF
FF
18
30
30
ENDCHAR

STARTCHAR comma
ENCODING 44
SWIDTH 280 0
DWIDTH 5 0
BBX 2 4 1 -2
BITMAP
C0
C0
40
80
ENDCHAR

STARTCHAR minus
ENCODING 45
SWIDTH 600 0
DWIDTH 10 0
BBX 7 2 2 4
BITMAP
FE
FE
ENDCHAR

STARTCHAR period
ENCODING 46
SWIDTH 280 0
DWIDTH 4 0
BBX 2 2 1 0
BITMAP
C0
C0
ENDCHAR

STARTCHAR slash
ENCODING 47
SWIDTH 460 0
DWIDTH 8 0
BBX 10 15 0 -2
BITMAP
00C0
0080
0180
0300
0200
0600
0400
0C00
0800
1800
1000
3000
6000
4000
C000
ENDCHAR

STARTCHAR zero
ENCODING 48
SWIDTH 560 0
DWIDTH 9 0
BBX 9 13 1 0
BITMAP
0E00
3F00
3380
6180
6180
C180
C180
C180
C300
C300
E600
7C00
7800
ENDCHAR

STARTCHAR one
ENCODING 49
SWIDTH 560 0
DWIDTH 9 0
BBX 5 13 3 0
BITMAP
38
38
18
30
30
30
60
60
60
60
C0
C0
C0
ENDCHAR

STARTCHAR two
ENCODING 50
SWIDTH 560 0
DWIDTH 9 0
BBX 10 13 1 0
BITMAP
0700
1F80
19C0
30C0
00C0
0180
0300
0E00
1C00
3000
6000
FE00
FE00
ENDCHAR

STARTCHAR three
ENCODING 51
SWIDTH 560 0
DWIDTH 9 0
BBX 10 13 0 0
BITMAP
0780
1FC0
18C0
30C0
0180
0780
0F00
0380
0180
4180
E300
7F00
3C00
ENDCHAR

STARTCHAR four
ENCODING 52
SWIDTH 560 0
DWIDTH 9 0
BBX 9 13 1 0
BITMAP
0180
0380
0780
0F00
0B00
1B00
3300
6600
6600
FF00
FF00
0C00
0C00
ENDCHAR

STARTCHAR five
ENCODING 53
SWIDTH 560 0
DWIDTH 9 0
BBX 11 13 0 0
BITMAP
07E0
07E0
0C00
0C00
1800
1F00
3F80
3180
0180
4180
E300
7E00
3C00
ENDCHAR

STARTCHAR six
ENCODING 54
SWIDTH 560 0
DWIDTH 9 0
BBX 9 13 1 0
BITMAP
0380
0700
0E00
1C00
3000
7E00
7F00
E300
C300
C300
C600
FC00
7800
ENDCHAR

STARTCHAR seven
ENCODING 55
SWIDTH 560 0
DWIDTH 9 0
BBX 10 13 1 0
BITMAP
3FC0
3FC0
0180
0380
0300
0600
0C00
0C00
1800
3800
3000
6000
E000
ENDCHAR

STARTCHAR eight
ENCODING 56
SWIDTH 560 0
DWIDTH 9 0
BBX 9 13 1 0
BITMAP
0F00
1F80
1980
3180
3B00
1E00
7E00
6700
C300
C300
C700
FE00
7C00
ENDCHAR

STARTCHAR nine
ENCODING 57
SWIDTH 560 0
DWIDTH 9 0
BBX 9 13 1 0
BITMAP
0F00
1F80
3180
6180
6180
6380
7F00
3F00
0600
1C00
3800
7000
E000
ENDCHAR

STARTCHAR colon
ENCODING 58
SWIDTH 280 0
DWIDTH 5 0
BBX 4 8 1 0
BITMAP
30
30
00
00
00
00
C0
C0
ENDCHAR

STARTCHAR semicolon
ENCODING 59
SWIDTH 280 0
DWIDTH 5 0
BBX 4 10 1 -2
BITMAP
30
30
00
00
00
00
C0
C0
40
80
ENDCHAR

STARTCHAR less
ENCODING 60
SWIDTH 600 0
DWIDTH 10 0
BBX 9 9 2 1
BITMAP
0080
0380
1F00
7800
E000
7800
1E00
0600
0200
ENDCHAR

STARTCHAR equal
ENCODING 61
SWIDTH 600 0
DWIDTH 10 0
BBX 8 5 2 3
BITMAP
7F
7F
00
FE
FE
ENDCHAR

STARTCHAR greater
ENCODING 62
SWIDTH 600 0
DWIDTH 10 0
BBX 9 9 1 1
BITMAP
2000
3000
3C00
0F00
0380
0F00
7C00
E000
8000
ENDCHAR

STARTCHAR question
ENCODING 63
SWIDTH 560 0
DWIDTH 9 0
BBX 8 13 3 0
BITMAP
3C
7E
C3
C3
06
0C
18
30
60
60
00
C0
C0
ENDCHAR

STARTCHAR at
ENCODING 64
SWIDTH 740 0
DWIDTH 12 0
BBX 13 13 1 0
BITMAP
03C0
0E70
3810
23B8
6FE8
4CE8
D8C8
9990
9FB0
CEE0
4000
71C0
1F00
ENDCHAR

STARTCHAR A
ENCODING 65
SWIDTH 740 0
DWIDTH 12 0
BBX 11 13 1 0
BITMAP
0180
0180
03C0
06C0
06C0
0CC0
1CC0
18C0
3FE0
7FE0
6060
C060
C060
ENDCHAR

STARTCHAR B
ENCODING 66
SWIDTH 580 0
DWIDTH 10 0
BBX 10 13 2 0
BITMAP
1F00
1F80
18C0
30C0
3180
3F00
7F00
6180
6180
6180
C300
FE00
FC00
ENDCHAR

STARTCHAR C
ENCODING 67
SWIDTH 780 0
DWIDTH 13 0
BBX 13 13 2 0
BITMAP
03C0
0FF0
1C38
3030
6000
6000
C000
C000
C000
E060
61C0
7F80
1E00
ENDCHAR

STARTCHAR D
ENCODING 68
SWIDTH 700 0
DWIDTH 12 0
BBX 12 13 1 0
BITMAP
1F80
1FE0
1860
3030
3030
3030
6030
6060
6060
60C0
C380
FF00
FC00
ENDCHAR

STARTCHAR E
ENCODING 69
SWIDTH 520 0
DWIDTH 9 0
BBX 9 13 2 0
BITMAP
1F80
1F80
1800
3000
3000
3F00
7F00
6000
6000
6000
C000
FC00
FC00
ENDCHAR

STARTCHAR F
ENCODING 70
SWIDTH 480 0
DWIDTH 8 0
BBX 9 13 1 0
BITMAP
1F80
1F80
1800
3000
3000
3F00
7F00
6000
6000
6000
C000
C000
C000
ENDCHAR

STARTCHAR G
ENCODING 71
SWIDTH 840 0
DWIDTH 14 0
BBX 13 13 2 0
BITMAP
03E0
0FF0
1C38
3030
6000
6000
C7F0
C7F0
C030
E060
61C0
7F80
1E00
ENDCHAR

STARTCHAR H
ENCODING 72
SWIDTH 680 0
DWIDTH 11 0
BBX 12 13 1 0
BITMAP
1830
1830
1830
3060
3060
3FE0
7FC0
60C0
60C0
60C0
C180
C180
C180
ENDCHAR

STARTCHAR I
ENCODING 73
SWIDTH 280 0
DWIDTH 5 0
BBX 5 13 1 0
BITMAP
18
18
18
30
30
30
60
60
60
60
C0
C0
C0
ENDCHAR

STARTCHAR J
ENCODING 74
SWIDTH 480 0
DWIDTH 8 0
BBX 9 13 0 0
BITMAP
0180
0180
0180
0300
0300
0300
0600
0600
0600
0600
CC00
FC00
7800
ENDCHAR

STARTCHAR K
ENCODING 75
SWIDTH 620 0
DWIDTH 10 0
BBX 11 13 2 0
BITMAP
1860
18C0
1980
3300
3600
3C00
7800
7C00
6C00
6600
C600
C300
C300
ENDCHAR

STARTCHAR L
ENCODING 76
SWIDTH 440 0
DWIDTH 7 0
BBX 6 13 1 0
BITMAP
18
18
18
30
30
30
60
60
60
60
C0
FC
FC
ENDCHAR

STARTCHAR M
ENCODING 77
SWIDTH 900 0
DWIDTH 15 0
BBX 15 13 1 0
BITMAP
1C0E
1C0E
1C1E
3C3C
3C3C
2C6C
6CD8
6CD8
6798
6718
C730
C630
C630
ENDCHAR

STARTCHAR N
ENCODING 78
SWIDTH 740 0
DWIDTH 12 0
BBX 12 13 1 0
BITMAP
1C30
1C30
1C30
3C60
3660
3660
66C0
66C0
66C0
63C0
C380
C380
C380
ENDCHAR

STARTCHAR O
ENCODING 79
SWIDTH 840 0
DWIDTH 14 0
BBX 14 13 1 0
BITMAP
03E0
0FF8
1C18
301C
600C
600C
C00C
C018
C018
E030
60E0
7FC0
1F00
ENDCHAR

STARTCHAR P
ENCODING 80
SWIDTH 560 0
DWIDTH 9 0
BBX 10 13 1 0
BITMAP
1F00
1F80
19C0
30C0
3180
3380
7F00
7C00
6000
6000
C000
C000
C000
ENDCHAR

STARTCHAR Q
ENCODING 81
SWIDTH 840 0
DWIDTH 14 0
BBX 14 13 1 0
BITMAP
03E0
0FF8
1C18
301C
600C
600C
C00C
FC18
FF18
C3B0
61E0
7FF0
1E70
ENDCHAR

STARTCHAR R
ENCODING 82
SWIDTH 580 0
DWIDTH 9 0
BBX 10 13 1 0
BITMAP
1F00
1F80
19C0
30C0
3180
3380
7F00
7C00
6C00
6600
C600
C300
C300
ENDCHAR

STARTCHAR S
ENCODING 83
SWIDTH 520 0
DWIDTH 9 0
BBX 10 13 1 0
BITMAP
0780
1FC0
18C0
30C0
3000
3800
1E00
0700
0300
C300
C600
FE00
7800
ENDCHAR

STARTCHAR T
ENCODING 84
SWIDTH 420 0
DWIDTH 7 0
BBX 8 13 2 0
BITMAP
7F
7F
18
30
30
30
60
60
60
60
C0
C0
C0
ENDCHAR

STARTCHAR U
ENCODING 85
SWIDTH 640 0
DWIDTH 10 0
BBX 11 13 1 0
BITMAP
1860
1860
3060
30C0
30C0
60C0
6180
6180
C180
C300
C700
7E00
3C00
ENDCHAR

STARTCHAR V
ENCODING 86
SWIDTH 700 0
DWIDTH 11 0
BBX 10 13 3 0
BITMAP
C0C0
C0C0
C180
C300
C300
C600
CC00
6C00
7800
7000
7000
6000
6000
ENDCHAR

STARTCHAR W
ENCODING 87
SWIDTH 900 0
DWIDTH 15 0
BBX 14 13 3 0
BITMAP
C30C
C30C
C718
C718
CF30
CB30
DB60
D340
F3C0
E380
E380
C300
C300
ENDCHAR

STARTCHAR X
ENCODING 88
SWIDTH 680 0
DWIDTH 11 0
BBX 13 13 0 0
BITMAP
1818
1838
0C70
0CE0
05C0
0780
0700
0F00
1D00
3980
7180
E0C0
C0C0
ENDCHAR

STARTCHAR Y
ENCODING 89
SWIDTH 620 0
DWIDTH 10 0
BBX 10 13 3 0
BITMAP
C1C0
C380
C300
6600
6C00
7C00
3800
3000
3000
3000
6000
6000
6000
ENDCHAR

STARTCHAR Z
ENCODING 90
SWIDTH 500 0
DWIDTH 8 0
BBX 11 13 0 0
BITMAP
1FE0
1FE0
00C0
0180
0300
0600
0C00
0C00
1800
3000
6000
FF00
FF00
ENDCHAR

STARTCHAR bracketleft
ENCODING 91
SWIDTH 320 0
DWIDTH 6 0
BBX 6 15 2 -2
BITMAP
0C
1C
30
30
60
60
60
60
C0
C0
C0
C0
C0
E0
60
ENDCHAR

STARTCHAR backslash
ENCODING 92
SWIDTH 640 0
DWIDTH 11 0
BBX 4 13 4 0
BITMAP
C0
C0
C0
40
40
60
60
60
20
20
30
30
30
ENDCHAR

STARTCHAR bracketright
ENCODING 93
SWIDTH 320 0
DWIDTH 5 0
BBX 6 15 0 -2
BITMAP
18
1C
0C
0C
0C
0C
0C
18
18
18
18
30
30
E0
C0
ENDCHAR

STARTCHAR asciicircum
ENCODING 94
SWIDTH 600 0
DWIDTH 10 0
BBX 9 7 2 6
BITMAP
0600
0E00
1E00
3300
3300
6300
E380
ENDCHAR

STARTCHAR underscore
ENCODING 95
SWIDTH 500 0
DWIDTH 8 0
BBX 8 1 -1 -2
BITMAP
FF
ENDCHAR

STARTCHAR quoteleft
ENCODING 96
SWIDTH 280 0
DWIDTH 5 0
BBX 2 4 4 9
BITMAP
40
80
C0
C0
ENDCHAR

STARTCHAR a
ENCODING 97
SWIDTH 660 0
DWIDTH 11 0
BBX 11 10 1 0
BITMAP
0F60
3FE0
70E0
60C0
C0C0
C0C0
C180
C380
7F80
3D80
ENDCHAR

STARTCHAR b
ENCODING 98
SWIDTH 660 0
DWIDTH 11 0
BBX 10 13 1 0
BITMAP
1800
1800
1800
3B00
3F80
30C0
30C0
60C0
60C0
6180
E380
FF00
DC00
ENDCHAR

STARTCHAR c
ENCODING 99
SWIDTH 640 0
DWIDTH 11 0
BBX 10 10 2 0
BITMAP
0F80
3FC0
70C0
6000
C000
C000
C180
C380
7F00
3C00
ENDCHAR

STARTCHAR d
ENCODING 100
SWIDTH 660 0
DWIDTH 11 0
BBX 12 13 1 0
BITMAP
0030
0030
0060
0F60
3FE0
70E0
60C0
C0C0
C180
C180
C380
7F80
3D80
ENDCHAR

STARTCHAR e
ENCODING 101
SWIDTH 640 0
DWIDTH 10 0
BBX 9 10 2 0
BITMAP
0E00
3F00
7180
6180
FF80
FF80
C000
C700
7E00
3800
ENDCHAR

STARTCHAR f
ENCODING 102
SWIDTH 280 0
DWIDTH 5 0
BBX 7 13 1 0
BITMAP
0E
1E
18
7C
7C
30
60
60
60
60
C0
C0
C0
ENDCHAR

STARTCHAR g
ENCODING 103
SWIDTH 660 0
DWIDTH 11 0
BBX 11 13 1 -3
BITMAP
0F60
3FE0
30E0
70C0
60C0
61C0
6180
7F80
3D80
0180
C300
EF00
7C00
ENDCHAR

STARTCHAR h
ENCODING 104
SWIDTH 600 0
DWIDTH 10 0
BBX 10 13 1 0
BITMAP
1800
1800
1800
3700
3F80
38C0
60C0
6180
6180
6180
C300
C300
C300
ENDCHAR

STARTCHAR i
ENCODING 105
SWIDTH 240 0
DWIDTH 4 0
BBX 5 13 1 0
BITMAP
18
18
00
30
30
30
60
60
60
60
C0
C0
C0
ENDCHAR

STARTCHAR j
ENCODING 106
SWIDTH 260 0
DWIDTH 4 0
BBX 8 16 -2 -3
BITMAP
03
03
00
06
06
06
0C
0C
0C
0C
18
18
18
30
F0
E0
ENDCHAR

STARTCHAR k
ENCODING 107
SWIDTH 580 0
DWIDTH 10 0
BBX 10 13 2 0
BITMAP
1800
1800
1800
30C0
3180
3300
6600
7C00
7C00
6600
C600
C300
C300
ENDCHAR

STARTCHAR l
ENCODING 108
SWIDTH 240 0
DWIDTH 4 0
BBX 5 13 1 0
BITMAP
18
18
18
30
30
30
60
60
60
60
C0
C0
C0
ENDCHAR

STARTCHAR m
ENCODING 109
SWIDTH 940 0
DWIDTH 16 0
BBX 16 10 1 0
BITMAP
371C
3FBE
38E3
60C3
6186
6186
6186
C30C
C30C
C30C
ENDCHAR

STARTCHAR n
ENCODING 110
SWIDTH 600 0
DWIDTH 10 0
BBX 10 10 1 0
BITMAP
3700
3F80
38C0
60C0
6180
6180
6180
C300
C300
C300
ENDCHAR

STARTCHAR o
ENCODING 111
SWIDTH 640 0
DWIDTH 11 0
BBX 10 10 2 0
BITMAP
0F00
3F80
70C0
60C0
C0C0
C0C0
C180
C380
7F00
3C00
ENDCHAR

STARTCHAR p
ENCODING 112
SWIDTH 660 0
DWIDTH 11 0
BBX 11 13 0 -3
BITMAP
1D80
1FC0
1860
3860
3060
3060
30C0
71C0
7F80
6E00
C000
C000
C000
ENDCHAR

STARTCHAR q
ENCODING 113
SWIDTH 660 0
DWIDTH 11 0
BBX 11 13 1 -3
BITMAP
0F60
3FE0
70E0
60C0
C0C0
C1C0
C1C0
C380
7F80
3D80
0300
0300
0300
ENDCHAR

STARTCHAR r
ENCODING 114
SWIDTH 320 0
DWIDTH 5 0
BBX 7 10 0 0
BITMAP
36
3E
30
60
60
60
60
C0
C0
C0
ENDCHAR

STARTCHAR s
ENCODING 115
SWIDTH 440 0
DWIDTH 7 0
BBX 8 10 1 0
BITMAP
0E
3F
33
60
38
1C
06
CC
FC
70
ENDCHAR

STARTCHAR t
ENCODING 116
SWIDTH 300 0
DWIDTH 5 0
BBX 6 13 1 0
BITMAP
18
18
18
7C
7C
30
60
60
60
60
C0
C0
C0
ENDCHAR

STARTCHAR u
ENCODING 117
SWIDTH 600 0
DWIDTH 10 0
BBX 10 10 1 0
BITMAP
30C0
30C0
30C0
6180
6180
6180
C180
C700
7F00
3B00
ENDCHAR

STARTCHAR v
ENCODING 118
SWIDTH 560 0
DWIDTH 9 0
BBX 8 10 3 0
BITMAP
C3
C3
C6
CC
CC
78
70
70
60
60
ENDCHAR

STARTCHAR w
ENCODING 119
SWIDTH 800 0
DWIDTH 13 0
BBX 12 10 3 0
BITMAP
C630
C670
C660
CCC0
DCC0
DD80
7780
7700
6600
6600
ENDCHAR

STARTCHAR x
ENCODING 120
SWIDTH 560 0
DWIDTH 9 0
BBX 10 10 0 0
BITMAP
30C0
31C0
1980
1F00
0E00
1C00
3E00
6600
E300
C300
ENDCHAR

STARTCHAR y
ENCODING 121
SWIDTH 580 0
DWIDTH 10 0
BBX 10 13 2 -3
BITMAP
60C0
61C0
6180
3300
3600
3E00
3C00
1800
3000
3000
6000
C000
C000
ENDCHAR

STARTCHAR z
ENCODING 122
SWIDTH 460 0
DWIDTH 8 0
BBX 8 10 1 0
BITMAP
3F
3F
06
0C
18
18
30
60
FC
FC
ENDCHAR

STARTCHAR braceleft
ENCODING 123
SWIDTH 340 0
DWIDTH 6 0
BBX 7 15 1 -2
BITMAP
06
0C
0C
18
18
18
30
60
30
30
60
60
60
C0
60
ENDCHAR

STARTCHAR bar
ENCODING 124
SWIDTH 600 0
DWIDTH 10 0
BBX 5 13 4 0
BITMAP
18
18
18
30
30
30
60
60
60
60
C0
C0
C0
ENDCHAR

STARTCHAR braceright
ENCODING 125
SWIDTH 340 0
DWIDTH 6 0
BBX 7 15 0 -2
BITMAP
0C
06
0C
0C
0C
18
18
0C
18
30
30
30
60
60
C0
ENDCHAR

STARTCHAR asciitilde
ENCODING 126
SWIDTH 600 0
DWIDTH 10 0
BBX 8 3 2 4
BITMAP
72
FF
4E
ENDCHAR

STARTCHAR space
ENCODING 160
SWIDTH 280 0
DWIDTH 4 0
BBX 1 1 0 0
BITMAP
00
ENDCHAR

STARTCHAR exclamdown
ENCODING 161
SWIDTH 280 0
DWIDTH 5 0
BBX 5 13 1 -3
BITMAP
18
18
00
30
30
30
60
60
60
60
C0
C0
C0
ENDCHAR

STARTCHAR cent
ENCODING 162
SWIDTH 560 0
DWIDTH 9 0
BBX 8 12 2 0
BITMAP
06
06
1E
7F
63
C0
C0
C6
FE
78
30
30
ENDCHAR

STARTCHAR sterling
ENCODING 163
SWIDTH 560 0
DWIDTH 9 0
BBX 10 13 1 0
BITMAP
0700
1F80
19C0
3080
3000
1800
7E00
7E00
1800
3180
6300
FF00
FC00
ENDCHAR

STARTCHAR EuroSign
ENCODING 164
SWIDTH 534 0
DWIDTH 9 0
BBX 10 12 1 0
BITMAP
0780
1FC0
3800
3000
FF00
6000
FF00
6000
6000
3100
3F00
1E00
ENDCHAR

STARTCHAR yen
ENCODING 165
SWIDTH 560 0
DWIDTH 9 0
BBX 11 13 2 0
BITMAP
60E0
60C0
6180
3300
3300
F780
3C00
1800
FF00
1800
3000
3000
3000
ENDCHAR

STARTCHAR Scaron
ENCODING 166
SWIDTH 520 0
DWIDTH 9 0
BBX 10 17 1 0
BITMAP
0CC0
0780
0300
0000
0780
1FC0
18C0
30C0
3000
3800
1E00
0700
0300
C300
C600
FE00
7800
ENDCHAR

STARTCHAR section
ENCODING 167
SWIDTH 560 0
DWIDTH 9 0
BBX 10 15 0 -2
BITMAP
0780
1FC0
38C0
30C0
3C00
3F00
6780
6180
7980
3F00
0F00
C300
C700
FE00
7800
ENDCHAR

STARTCHAR scaron
ENCODING 168
SWIDTH 440 0
DWIDTH 7 0
BBX 8 14 1 0
BITMAP
33
1E
0C
00
0E
3F
33
60
38
1C
06
CC
FC
70
ENDCHAR

STARTCHAR copyright
ENCODING 169
SWIDTH 740 0
DWIDTH 12 0
BBX 13 13 1 0
BITMAP
07C0
1C70
3010
6798
4CC8
D808
9008
9018
9990
CF30
4060
71C0
1F00
ENDCHAR

STARTCHAR ordfeminine
ENCODING 170
SWIDTH 360 0
DWIDTH 6 0
BBX 6 7 2 6
BITMAP
34
6C
CC
D8
68
00
F8
ENDCHAR

STARTCHAR guillemotleft
ENCODING 171
SWIDTH 460 0
DWIDTH 8 0
BBX 6 6 2 2
BITMAP
24
6C
D8
90
D8
48
ENDCHAR

STARTCHAR logicalnot
ENCODING 172
SWIDTH 600 0
DWIDTH 10 0
BBX 8 5 2 3
BITMAP
FF
FF
03
06
06
ENDCHAR

STARTCHAR hyphen
ENCODING 173
SWIDTH 420 0
DWIDTH 7 0
BBX 5 2 2 4
BITMAP
F8
F8
ENDCHAR

STARTCHAR registered
ENCODING 174
SWIDTH 740 0
DWIDTH 12 0
BBX 13 13 1 0
BITMAP
07C0
1C70
3010
6F98
4848
C848
8F88
9218
9110
D0B0
4060
71C0
1F00
ENDCHAR

STARTCHAR macron
ENCODING 175
SWIDTH 420 0
DWIDTH 7 0
BBX 4 2 4 11
BITMAP
F0
F0
ENDCHAR

STARTCHAR degree
ENCODING 176
SWIDTH 400 0
DWIDTH 7 0
BBX 6 5 3 8
BITMAP
38
6C
CC
D8
70
ENDCHAR

STARTCHAR plusminus
ENCODING 177
SWIDTH 600 0
DWIDTH 10 0
BBX 10 9 0 0
BITMAP
0600
0600
7FC0
7FC0
0C00
0C00
0000
FF80
FF80
ENDCHAR

STARTCHAR twosuperior
ENCODING 178
SWIDTH 336 0
DWIDTH 6 0
BBX 6 7 2 6
BITMAP
38
7C
4C
18
30
60
F8
ENDCHAR

STARTCHAR threesuperior
ENCODING 179
SWIDTH 336 0
DWIDTH 6 0
BBX 6 7 2 6
BITMAP
38
4C
18
38
0C
D8
70
ENDCHAR

STARTCHAR Zcaron
ENCODING 180
SWIDTH 500 0
DWIDTH 8 0
BBX 11 17 0 0
BITMAP
0CC0
0780
0300
0000
1FE0
1FE0
00C0
0180
0300
0600
0C00
0C00
1800
3000
6000
FF00
FF00
ENDCHAR

STARTCHAR mu
ENCODING 181
SWIDTH 576 0
DWIDTH 10 0
BBX 11 13 0 -3
BITMAP
1860
1860
1860
30C0
30C0
30C0
30C0
7380
7F80
7D80
C000
C000
C000
ENDCHAR

STARTCHAR paragraph
ENCODING 182
SWIDTH 600 0
DWIDTH 10 0
BBX 9 15 2 -2
BITMAP
3F80
7F80
F980
FB00
FB00
7B00
3600
3600
3600
6C00
6C00
6C00
D800
D800
D800
ENDCHAR

STARTCHAR periodcentered
ENCODING 183
SWIDTH 280 0
DWIDTH 5 0
BBX 2 2 3 4
BITMAP
C0
C0
ENDCHAR

STARTCHAR zcaron
ENCODING 184
SWIDTH 460 0
DWIDTH 8 0
BBX 8 14 1 0
BITMAP
33
1E
0C
00
3F
3F
06
0C
18
18
30
60
FC
FC
ENDCHAR

STARTCHAR onesuperior
ENCODING 185
SWIDTH 336 0
DWIDTH 6 0
BBX 4 7 3 6
BITMAP
70
30
60
60
C0
C0
C0
ENDCHAR

STARTCHAR ordmasculine
ENCODING 186
SWIDTH 360 0
DWIDTH 6 0
BBX 6 7 2 6
BITMAP
38
6C
CC
D8
70
00
F8
ENDCHAR

STARTCHAR guillemotright
ENCODING 187
SWIDTH 460 0
DWIDTH 8 0
BBX 6 6 2 2
BITMAP
48
6C
24
6C
D8
90
ENDCHAR

STARTCHAR Ligature_OE
ENCODING 188
SWIDTH 1060 0
DWIDTH 18 0
BBX 19 13 1 0
BITMAP
03E7E0
0FFFE0
1C1C00
301C00
600C00
600FC0
C01FC0
C01800
C01800
E03000
60F000
7FFF00
1F3F00
ENDCHAR

STARTCHAR Ligature_oe
ENCODING 189
SWIDTH 1080 0
DWIDTH 18 0
BBX 17 10 1 0
BITMAP
0F1E00
3FFF80
70E180
60C180
C0FF80
C0FF80
C1C000
C3C700
7F7E00
3C3800
ENDCHAR

STARTCHAR Ydiaeresis
ENCODING 190
SWIDTH 620 0
DWIDTH 10 0
BBX 10 16 3 0
BITMAP
0D80
0D80
0000
C1C0
C380
C300
6600
6C00
7C00
3800
3000
3000
3000
6000
6000
6000
ENDCHAR

STARTCHAR questiondown
ENCODING 191
SWIDTH 560 0
DWIDTH 9 0
BBX 8 13 0 -3
BITMAP
03
03
00
06
06
0C
18
30
60
C3
C3
7E
3C
ENDCHAR

STARTCHAR Agrave
ENCODING 192
SWIDTH 740 0
DWIDTH 12 0
BBX 11 17 1 0
BITMAP
0600
0700
0180
0000
0180
0180
03C0
06C0
06C0
0CC0
1CC0
18C0
3FE0
7FE0
6060
C060
C060
ENDCHAR

STARTCHAR Aacute
ENCODING 193
SWIDTH 740 0
DWIDTH 12 0
BBX 12 17 1 0
BITMAP
0030
0070
00C0
0000
0180
0180
03C0
06C0
06C0
0CC0
1CC0
18C0
3FE0
7FE0
6060
C060
C060
ENDCHAR

STARTCHAR Acircumflex
ENCODING 194
SWIDTH 740 0
DWIDTH 12 0
BBX 11 17 1 0
BITMAP
0180
03C0
0660
0000
0180
0180
03C0
06C0
06C0
0CC0
1CC0
18C0
3FE0
7FE0
6060
C060
C060
ENDCHAR

STARTCHAR Atilde
ENCODING 195
SWIDTH 740 0
DWIDTH 12 0
BBX 11 16 1 0
BITMAP
03A0
05C0
0000
0180
0180
03C0
06C0
06C0
0CC0
1CC0
18C0
3FE0
7FE0
6060
C060
C060
ENDCHAR

STARTCHAR Adieresis
ENCODING 196
SWIDTH 740 0
DWIDTH 12 0
BBX 11 16 1 0
BITMAP
0360
0360
0000
0180
0180
03C0
06C0
06C0
0CC0
1CC0
18C0
3FE0
7FE0
6060
C060
C060
ENDCHAR

STARTCHAR Aring
ENCODING 197
SWIDTH 740 0
DWIDTH 12 0
BBX 11 16 1 0
BITMAP
01C0
0360
01C0
0180
0180
03C0
06C0
06C0
0CC0
1CC0
18C0
3FE0
7FE0
6060
C060
C060
ENDCHAR

STARTCHAR AE
ENCODING 198
SWIDTH 900 0
DWIDTH 15 0
BBX 16 13 1 0
BITMAP
00FF
01FF
01F0
0360
0760
067E
0CFE
1CC0
1FC0
3FC0
7180
E1F8
E1F8
ENDCHAR

STARTCHAR Ccedilla
ENCODING 199
SWIDTH 780 0
DWIDTH 13 0
BBX 13 16 2 -3
BITMAP
03C0
0FF0
1C38
3030
6000
6000
C000
C000
C000
E060
61C0
7F80
1E00
1800
0C00
3800
ENDCHAR

STARTCHAR Egrave
ENCODING 200
SWIDTH 520 0
DWIDTH 9 0
BBX 9 17 1 0
BITMAP
0C00
0E00
0300
0000
1F80
1F80
1800
3000
3000
3F00
7F00
6000
6000
6000
C000
FC00
FC00
ENDCHAR

STARTCHAR Eacute
ENCODING 201
SWIDTH 520 0
DWIDTH 9 0
BBX 9 17 1 0
BITMAP
0180
0380
0600
0000
1F80
1F80
1800
3000
3000
3F00
7F00
6000
6000
6000
C000
FC00
FC00
ENDCHAR

STARTCHAR Ecircumflex
ENCODING 202
SWIDTH 520 0
DWIDTH 9 0
BBX 10 17 1 0
BITMAP
0300
0780
0CC0
0000
1F80
1F80
1800
3000
3000
3F00
7F00
6000
6000
6000
C000
FC00
FC00
ENDCHAR

STARTCHAR Edieresis
ENCODING 203
SWIDTH 520 0
DWIDTH 9 0
BBX 9 16 1 0
BITMAP
0D80
0D80
0000
1F80
1F80
1800
3000
3000
3F00
7F00
6000
6000
6000
C000
FC00
FC00
ENDCHAR

STARTCHAR Igrave
ENCODING 204
SWIDTH 280 0
DWIDTH 5 0
BBX 6 17 1 0
BITMAP
30
38
0C
00
18
18
18
30
30
30
60
60
60
60
C0
C0
C0
ENDCHAR

STARTCHAR Iacute
ENCODING 205
SWIDTH 280 0
DWIDTH 5 0
BBX 8 17 1 0
BITMAP
03
07
0C
00
18
18
18
30
30
30
60
60
60
60
C0
C0
C0
ENDCHAR

STARTCHAR Icircumflex
ENCODING 206
SWIDTH 280 0
DWIDTH 5 0
BBX 7 17 1 0
BITMAP
18
3C
66
00
18
18
18
30
30
30
60
60
60
60
C0
C0
C0
ENDCHAR

STARTCHAR Idieresis
ENCODING 207
SWIDTH 280 0
DWIDTH 5 0
BBX 7 16 1 0
BITMAP
36
36
00
18
18
18
30
30
30
60
60
60
60
C0
C0
C0
ENDCHAR

STARTCHAR Eth
ENCODING 208
SWIDTH 742 0
DWIDTH 12 0
BBX 12 13 1 0
BITMAP
1F80
1FE0
1860
3030
3030
7E30
FC30
6060
6060
60C0
C380
FF00
FC00
ENDCHAR

STARTCHAR Ntilde
ENCODING 209
SWIDTH 740 0
DWIDTH 12 0
BBX 12 16 1 0
BITMAP
03A0
05C0
0000
1830
1C30
1C30
3C60
3660
3660
66C0
66C0
66C0
63C0
C380
C380
C380
ENDCHAR

STARTCHAR Ograve
ENCODING 210
SWIDTH 840 0
DWIDTH 14 0
BBX 14 17 1 0
BITMAP
0300
0380
00C0
0000
03E0
0FF8
1C18
301C
600C
600C
C00C
C018
C018
E030
60E0
7FC0
1F00
ENDCHAR

STARTCHAR Oacute
ENCODING 211
SWIDTH 840 0
DWIDTH 14 0
BBX 14 17 1 0
BITMAP
0030
0070
00C0
0000
03E0
0FF8
1C18
301C
600C
600C
C00C
C018
C018
E030
60E0
7FC0
1F00
ENDCHAR

STARTCHAR Ocircumflex
ENCODING 212
SWIDTH 840 0
DWIDTH 14 0
BBX 14 17 1 0
BITMAP
00C0
01E0
0330
0000
03F0
0FF8
1C18
301C
600C
600C
C00C
C018
C018
E030
60E0
7FC0
1F00
ENDCHAR

STARTCHAR Otilde
ENCODING 213
SWIDTH 840 0
DWIDTH 14 0
BBX 14 16 1 0
BITMAP
01D0
02E0
0000
01F0
0FF8
1C18
301C
600C
600C
C00C
C018
C018
E030
60E0
7FC0
1F00
ENDCHAR

STARTCHAR Odieresis
ENCODING 214
SWIDTH 840 0
DWIDTH 14 0
BBX 14 16 1 0
BITMAP
01B0
01B0
0000
03E0
0FF8
1C18
301C
600C
600C
C00C
C018
C018
E030
60E0
7FC0
1F00
ENDCHAR

STARTCHAR multiply
ENCODING 215
SWIDTH 600 0
DWIDTH 10 0
BBX 10 8 1 1
BITMAP
1080
31C0
3B00
1E00
1E00
3700
E300
4200
ENDCHAR

STARTCHAR Oslash
ENCODING 216
SWIDTH 840 0
DWIDTH 14 0
BBX 14 15 1 -1
BITMAP
0008
03DC
0FF8
1C38
306C
60CC
618C
C30C
C618
CC18
D830
70E0
7FC0
EF00
4000
ENDCHAR

STARTCHAR Ugrave
ENCODING 217
SWIDTH 640 0
DWIDTH 10 0
BBX 11 17 1 0
BITMAP
0600
0700
0180
0000
1860
1860
3060
30C0
30C0
60C0
6180
6180
C180
C300
C700
7E00
3C00
ENDCHAR

STARTCHAR Uacute
ENCODING 218
SWIDTH 640 0
DWIDTH 10 0
BBX 11 17 1 0
BITMAP
00C0
01C0
0300
0000
1860
1860
3060
30C0
30C0
60C0
6180
6180
C180
C300
C700
7E00
3C00
ENDCHAR

STARTCHAR Ucircumflex
ENCODING 219
SWIDTH 640 0
DWIDTH 10 0
BBX 11 17 1 0
BITMAP
0300
0780
0CC0
0000
1860
1860
3060
30C0
30C0
60C0
6180
6180
C180
C300
C700
7E00
3C00
ENDCHAR

STARTCHAR Udieresis
ENCODING 220
SWIDTH 640 0
DWIDTH 10 0
BBX 11 16 1 0
BITMAP
06C0
06C0
0000
1860
1860
3060
30C0
30C0
60C0
6180
6180
C180
C300
C700
7E00
3C00
ENDCHAR

STARTCHAR Yacute
ENCODING 221
SWIDTH 620 0
DWIDTH 10 0
BBX 10 17 3 0
BITMAP
0600
0E00
1800
0000
C1C0
C380
C300
6600
6C00
7C00
3800
3000
3000
3000
6000
6000
6000
ENDCHAR

STARTCHAR Thorn
ENCODING 222
SWIDTH 560 0
DWIDTH 9 0
BBX 9 13 1 0
BITMAP
1800
1800
1F00
3F00
3380
3180
6300
6700
7E00
7C00
C000
C000
C000
ENDCHAR

STARTCHAR germandbls
ENCODING 223
SWIDTH 600 0
DWIDTH 10 0
BBX 10 13 1 0
BITMAP
0700
1F80
19C0
3180
3700
3600
6300
6180
6180
6180
E300
DF00
DC00
ENDCHAR

STARTCHAR agrave
ENCODING 224
SWIDTH 660 0
DWIDTH 11 0
BBX 11 14 1 0
BITMAP
0C00
0E00
0300
0000
0F60
3FE0
70E0
60C0
C0C0
C0C0
C180
C380
7F80
3D80
ENDCHAR

STARTCHAR aacute
ENCODING 225
SWIDTH 660 0
DWIDTH 11 0
BBX 11 14 1 0
BITMAP
0180
0380
0600
0000
0F60
3FE0
70E0
60C0
C0C0
C0C0
C180
C380
7F80
3D80
ENDCHAR

STARTCHAR acircumflex
ENCODING 226
SWIDTH 660 0
DWIDTH 11 0
BBX 11 14 1 0
BITMAP
0300
0780
0CC0
0000
0F60
3FE0
70E0
60C0
C0C0
C0C0
C180
C380
7F80
3D80
ENDCHAR

STARTCHAR atilde
ENCODING 227
SWIDTH 660 0
DWIDTH 11 0
BBX 11 13 1 0
BITMAP
0740
0B80
0000
0F60
3FE0
70E0
60C0
C0C0
C0C0
C180
C380
7F80
3D80
ENDCHAR

STARTCHAR adieresis
ENCODING 228
SWIDTH 660 0
DWIDTH 11 0
BBX 11 13 1 0
BITMAP
06C0
06C0
0000
0F60
3FE0
70E0
60C0
C0C0
C0C0
C180
C380
7F80
3D80
ENDCHAR

STARTCHAR aring
ENCODING 229
SWIDTH 660 0
DWIDTH 11 0
BBX 11 14 1 0
BITMAP
0380
06C0
0380
0000
0F60
3FE0
70E0
60C0
C0C0
C0C0
C180
C380
7F80
3D80
ENDCHAR

STARTCHAR ae
ENCODING 230
SWIDTH 1080 0
DWIDTH 18 0
BBX 17 10 1 0
BITMAP
0F6E00
3FFF00
70E180
60C180
C0FF80
C0FF80
C0C000
C3C700
7FFE00
3DB800
ENDCHAR

STARTCHAR ccedilla
ENCODING 231
SWIDTH 640 0
DWIDTH 11 0
BBX 11 13 1 -3
BITMAP
0F80
3FC0
70E0
6000
C000
C000
C1C0
C380
7F00
3C00
3000
1800
7000
ENDCHAR

STARTCHAR egrave
ENCODING 232
SWIDTH 640 0
DWIDTH 10 0
BBX 9 14 1 0
BITMAP
3000
3800
0C00
0000
0E00
3F00
7180
6180
FF80
FF80
C000
C700
7E00
3800
ENDCHAR

STARTCHAR eacute
ENCODING 233
SWIDTH 640 0
DWIDTH 10 0
BBX 9 14 1 0
BITMAP
0180
0380
0600
0000
0E00
3F00
7180
6180
FF80
FF80
C000
C700
7E00
3800
ENDCHAR

STARTCHAR ecircumflex
ENCODING 234
SWIDTH 640 0
DWIDTH 10 0
BBX 9 14 1 0
BITMAP
0600
0F00
1980
0000
0E00
3F00
7180
6180
FF80
FF80
C000
C700
7E00
3800
ENDCHAR

STARTCHAR edieresis
ENCODING 235
SWIDTH 640 0
DWIDTH 10 0
BBX 9 13 1 0
BITMAP
1B00
1B00
0000
0E00
3F00
7180
6180
FF80
FF80
C000
C700
7E00
3800
ENDCHAR

STARTCHAR igrave
ENCODING 236
SWIDTH 240 0
DWIDTH 4 0
BBX 4 14 1 0
BITMAP
C0
E0
30
00
30
30
30
60
60
60
60
C0
C0
C0
ENDCHAR

STARTCHAR iacute
ENCODING 237
SWIDTH 240 0
DWIDTH 4 0
BBX 6 14 1 0
BITMAP
0C
1C
30
00
30
30
30
60
60
60
60
C0
C0
C0
ENDCHAR

STARTCHAR icircumflex
ENCODING 238
SWIDTH 240 0
DWIDTH 4 0
BBX 6 14 1 0
BITMAP
30
78
CC
00
30
30
30
60
60
60
60
C0
C0
C0
ENDCHAR

STARTCHAR idieresis
ENCODING 239
SWIDTH 240 0
DWIDTH 4 0
BBX 6 13 1 0
BITMAP
6C
6C
00
30
30
30
60
60
60
60
C0
C0
C0
ENDCHAR

STARTCHAR eth
ENCODING 240
SWIDTH 640 0
DWIDTH 11 0
BBX 10 14 2 0
BITMAP
1980
0E00
3F00
1180
0F80
3FC0
70C0
60C0
C0C0
C0C0
C180
C380
7F00
3C00
ENDCHAR

STARTCHAR ntilde
ENCODING 241
SWIDTH 600 0
DWIDTH 10 0
BBX 10 13 1 0
BITMAP
0740
0B80
0000
3700
3F80
38C0
60C0
6180
6180
6180
C300
C300
C300
ENDCHAR

STARTCHAR ograve
ENCODING 242
SWIDTH 640 0
DWIDTH 11 0
BBX 10 14 1 0
BITMAP
1800
1C00
0600
0000
0F00
3F80
70C0
60C0
C0C0
C0C0
C180
C380
7F00
3C00
ENDCHAR

STARTCHAR oacute
ENCODING 243
SWIDTH 640 0
DWIDTH 11 0
BBX 10 14 1 0
BITMAP
0180
0380
0600
0000
0F00
3F80
70C0
60C0
C0C0
C0C0
C180
C380
7F00
3C00
ENDCHAR

STARTCHAR ocircumflex
ENCODING 244
SWIDTH 640 0
DWIDTH 11 0
BBX 10 14 1 0
BITMAP
0600
0F00
1980
0000
0F00
3F80
70C0
60C0
C0C0
C0C0
C180
C380
7F00
3C00
ENDCHAR

STARTCHAR otilde
ENCODING 245
SWIDTH 640 0
DWIDTH 11 0
BBX 10 13 1 0
BITMAP
0E80
1700
0000
0F00
3F80
70C0
60C0
C0C0
C0C0
C180
C380
7F00
3C00
ENDCHAR

STARTCHAR odieresis
ENCODING 246
SWIDTH 640 0
DWIDTH 11 0
BBX 10 13 1 0
BITMAP
0D80
0D80
0000
0F00
3F80
70C0
60C0
C0C0
C0C0
C180
C380
7F00
3C00
ENDCHAR

STARTCHAR divide
ENCODING 247
SWIDTH 600 0
DWIDTH 10 0
BBX 8 8 2 1
BITMAP
0C
0C
00
FF
FF
00
30
30
ENDCHAR

STARTCHAR oslash
ENCODING 248
SWIDTH 660 0
DWIDTH 11 0
BBX 12 12 0 -1
BITMAP
0020
0770
1FC0
39E0
3360
6660
6660
6CC0
79C0
3F80
EE00
4000
ENDCHAR

STARTCHAR ugrave
ENCODING 249
SWIDTH 600 0
DWIDTH 10 0
BBX 10 14 1 0
BITMAP
0C00
0E00
0300
0000
30C0
30C0
30C0
6180
6180
6180
C180
C700
7F00
3B00
ENDCHAR

STARTCHAR uacute
ENCODING 250
SWIDTH 600 0
DWIDTH 10 0
BBX 10 14 1 0
BITMAP
0180
0380
0600
0000
30C0
30C0
30C0
6180
6180
6180
C180
C700
7F00
3B00
ENDCHAR

STARTCHAR ucircumflex
ENCODING 251
SWIDTH 600 0
DWIDTH 10 0
BBX 10 14 1 0
BITMAP
0600
0F00
1980
0000
30C0
30C0
30C0
6180
6180
6180
C180
C700
7F00
3B00
ENDCHAR

STARTCHAR udieresis
ENCODING 252
SWIDTH 600 0
DWIDTH 10 0
BBX 10 13 1 0
BITMAP
0D80
0D80
0000
30C0
30C0
30C0
6180
6180
6180
C180
C700
7F00
3B00
ENDCHAR

STARTCHAR yacute
ENCODING 253
SWIDTH 580 0
DWIDTH 10 0
BBX 10 17 2 -3
BITMAP
0300
0700
0C00
0000
60C0
61C0
6380
3300
3600
3E00
1C00
3800
3000
3000
6000
C000
C000
ENDCHAR

STARTCHAR thorn
ENCODING 254
SWIDTH 660 0
DWIDTH 11 0
BBX 11 16 1 -3
BITMAP
0C00
0C00
0C00
1D80
1FC0
1860
3860
3060
3060
30C0
71C0
7F80
6E00
C000
C000
C000
ENDCHAR

STARTCHAR ydieresis
ENCODING 255
SWIDTH 580 0
DWIDTH 10 0
BBX 10 16 2 -3
BITMAP
1B00
1B00
0000
60C0
60C0
6180
3300
3600
3E00
1C00
3800
3000
3000
6000
C000
C000
ENDCHAR
ENDFONT
